<?xml version="1.0" standalone="no"?>
<!DOCTYPE svg PUBLIC "-//W3C//DTD SVG 20010904//EN"
 "http://www.w3.org/TR/2001/REC-SVG-20010904/DTD/svg10.dtd">
<svg version="1.0" xmlns="http://www.w3.org/2000/svg"
 width="512.000000pt" height="512.000000pt" viewBox="0 0 512.000000 512.000000"
 preserveAspectRatio="xMidYMid meet">

<g transform="translate(0.000000,512.000000) scale(0.100000,-0.100000)"
fill="#000000" stroke="none">
<path d="M582 5107 c-48 -18 -99 -63 -125 -110 -22 -41 -22 -50 -25 -435 l-3
-393 -199 -509 c-110 -280 -207 -524 -216 -541 -12 -25 -15 -46 -9 -97 18
-165 105 -330 220 -414 l44 -33 1 -1032 0 -1033 -78 0 c-65 0 -82 -3 -100 -20
-21 -20 -22 -28 -22 -235 l0 -214 26 -20 27 -21 2478 2 c2364 3 2479 4 2496
21 16 16 18 40 18 233 0 215 0 216 -24 235 -18 15 -39 19 -97 19 l-74 0 0
1056 0 1055 51 62 c27 34 65 94 84 132 31 66 65 194 65 249 0 13 -96 267 -212
563 l-213 538 -5 395 c-5 384 -6 396 -27 437 -27 51 -82 96 -132 112 -56 16
-3902 14 -3949 -2z m1718 -302 l0 -76 30 16 c16 8 49 15 73 15 35 0 49 -6 73
-31 28 -30 29 -33 33 -155 l3 -124 -35 0 -35 0 -4 99 c-3 80 -7 104 -22 120
-24 27 -66 27 -94 1 -20 -19 -22 -31 -22 -120 l0 -100 -35 0 -35 0 0 215 0
215 35 0 35 0 0 -75z m-217 39 c62 -21 72 -35 48 -65 l-19 -23 -41 18 c-44 20
-97 24 -114 7 -5 -5 -7 -20 -3 -34 5 -20 18 -28 79 -45 98 -29 127 -56 127
-119 0 -57 -16 -84 -64 -107 -64 -30 -164 -14 -231 37 -20 16 -20 16 5 41 l25
25 53 -26 c49 -24 56 -25 92 -13 22 7 40 17 40 21 0 32 -37 52 -131 73 -14 3
-38 17 -52 30 -22 20 -27 34 -27 71 0 61 13 83 63 106 51 23 89 24 150 3z
m728 -97 c103 -70 107 -209 6 -275 -76 -51 -172 -30 -228 49 -33 46 -31 124 3
176 48 73 151 96 219 50z m219 -8 l0 -20 26 20 c58 46 177 10 201 -59 25 -74
2 -171 -49 -204 -40 -26 -98 -30 -140 -8 l-38 20 0 -69 0 -69 -35 0 -35 0 0
205 0 205 35 0 c29 0 35 -4 35 -21z m-1804 -666 c-3 -10 -53 -220 -111 -468
-59 -247 -108 -451 -109 -452 -2 -2 -183 -2 -404 -1 l-400 3 181 467 182 468
333 0 c313 0 333 -1 328 -17z m834 0 c0 -10 -16 -216 -35 -458 -19 -242 -35
-446 -35 -452 0 -10 -88 -13 -405 -13 -301 0 -405 3 -405 12 0 6 48 217 107
470 l107 458 333 0 c310 0 333 -1 333 -17z m868 -415 c18 -238 35 -450 38
-470 l6 -38 -412 0 -412 0 6 38 c3 20 20 232 38 470 l32 432 336 0 336 0 32
-432z m903 -28 c59 -250 108 -461 109 -467 0 -10 -87 -13 -405 -13 -263 0
-405 4 -405 10 0 5 -16 202 -35 437 -19 235 -35 442 -35 460 l0 33 331 -2 332
-3 108 -455z m899 -2 c101 -255 185 -466 187 -470 2 -5 -178 -8 -400 -8 l-404
0 -103 418 c-56 229 -108 441 -115 470 l-13 52 332 0 333 0 183 -462z m-3755
-665 c-37 -156 -196 -299 -350 -318 -120 -15 -258 37 -344 131 -46 50 -91 130
-105 187 l-6 27 406 0 406 0 -7 -27z m995 8 c0 -10 -16 -51 -36 -90 -132 -264
-447 -319 -651 -115 -49 48 -98 132 -118 202 l-6 22 405 0 c390 0 406 -1 406
-19z m979 -38 c-69 -202 -259 -320 -458 -284 -149 27 -268 133 -320 284 l-20
57 409 0 409 0 -20 -57z m1006 35 c-20 -70 -69 -154 -118 -202 -204 -204 -519
-149 -651 115 -60 120 -98 109 370 109 l405 0 -6 -22z m989 -5 c-14 -57 -59
-137 -105 -187 -86 -94 -224 -146 -344 -131 -154 19 -313 162 -350 318 l-7 27
406 0 406 0 -6 -27z m-2790 -311 c22 -23 58 -54 78 -69 l38 -26 0 -538 0 -539
-710 0 -710 0 0 535 0 534 44 30 c47 33 126 116 153 162 10 16 20 29 23 29 4
0 24 -25 45 -56 44 -64 125 -134 198 -170 64 -33 187 -64 251 -64 176 1 374
107 467 250 l32 50 25 -42 c14 -24 43 -62 66 -86z m1924 81 c43 -66 113 -137
167 -168 l45 -27 0 -1009 0 -1009 -620 0 -620 0 0 1127 0 1126 31 -44 c51 -71
90 -108 164 -154 177 -110 374 -122 553 -34 71 35 184 135 222 198 14 22 25
41 26 41 0 0 15 -21 32 -47z m-1188 -1183 l0 -1040 -1230 0 -1230 0 0 995 0
995 28 -7 c15 -5 73 -8 130 -8 l102 1 0 -508 0 -508 -39 0 c-54 0 -69 -7 -87
-42 -22 -42 -4 -93 38 -107 48 -17 1885 -15 1918 2 38 19 55 61 40 98 -16 37
-37 49 -89 49 l-41 0 0 508 0 508 113 0 c128 -1 219 21 297 73 25 16 46 30 48
30 1 1 2 -467 2 -1039z m1870 -35 l0 -1005 -150 0 -150 0 0 988 0 987 98 1
c61 1 112 7 137 17 22 9 46 16 53 16 9 1 12 -206 12 -1004z"/>
<path d="M2675 4675 c-34 -33 -35 -102 -2 -133 53 -50 137 -10 137 65 -1 42
-13 63 -47 81 -34 18 -62 14 -88 -13z"/>
<path d="M3083 4700 c-27 -11 -53 -59 -53 -100 0 -69 91 -107 138 -57 60 64
-7 188 -85 157z"/>
<path d="M1010 940 l0 -80 80 0 81 0 -3 78 -3 77 -77 3 -78 3 0 -81z"/>
<path d="M1480 940 l0 -80 80 0 80 0 0 80 0 80 -80 0 -80 0 0 -80z"/>
<path d="M1957 1013 c-4 -3 -7 -39 -7 -80 l0 -73 80 0 80 0 0 80 0 80 -73 0
c-41 0 -77 -3 -80 -7z"/>
</g>
</svg>
